<?xml version="1.0" encoding="UTF-8" standalone="no"?>
<!-- Created with Inkscape (http://www.inkscape.org/) -->

<svg
   xmlns:dc="http://purl.org/dc/elements/1.1/"
   xmlns:cc="http://creativecommons.org/ns#"
   xmlns:rdf="http://www.w3.org/1999/02/22-rdf-syntax-ns#"
   xmlns:svg="http://www.w3.org/2000/svg"
   xmlns="http://www.w3.org/2000/svg"
   xmlns:sodipodi="http://sodipodi.sourceforge.net/DTD/sodipodi-0.dtd"
   xmlns:inkscape="http://www.inkscape.org/namespaces/inkscape"
   width="249.80989"
   height="249.80989"
   id="svg2"
   version="1.1"
   inkscape:version="0.48.0 r9654"
   sodipodi:docname="Rx_symbol_border.svg">
  <defs
     id="defs4" />
  <sodipodi:namedview
     id="base"
     pagecolor="#ffffff"
     bordercolor="#666666"
     borderopacity="1.0"
     inkscape:pageopacity="0.0"
     inkscape:pageshadow="2"
     inkscape:zoom="1.2416434"
     inkscape:cx="112.18009"
     inkscape:cy="118.91548"
     inkscape:document-units="px"
     inkscape:current-layer="layer1"
     showgrid="false"
     fit-margin-top="0"
     fit-margin-left="0"
     fit-margin-right="0"
     fit-margin-bottom="0"
     inkscape:window-width="1024"
     inkscape:window-height="749"
     inkscape:window-x="-4"
     inkscape:window-y="-4"
     inkscape:window-maximized="1" />
  <metadata
     id="metadata7">
    <rdf:RDF>
      <cc:Work
         rdf:about="">
        <dc:format>image/svg+xml</dc:format>
        <dc:type
           rdf:resource="http://purl.org/dc/dcmitype/StillImage" />
        <dc:title></dc:title>
      </cc:Work>
    </rdf:RDF>
  </metadata>
  <g
     inkscape:label="Layer 1"
     inkscape:groupmode="layer"
     id="layer1"
     transform="translate(-226.78866,-267.47106)">
    <rect
       style="fill:#ffffff;stroke:#000000;stroke-width:9;stroke-miterlimit:4;stroke-opacity:1;stroke-dasharray:none"
       id="rect3001"
       width="240.80989"
       height="240.80989"
       x="-18.523838"
       y="-10.872687"
       transform="translate(249.8125,282.84375)"
       ry="20"
       rx="20" />
    <g
       style="font-size:200px;font-style:normal;font-variant:normal;font-weight:normal;font-stretch:normal;line-height:125%;letter-spacing:0px;word-spacing:0px;fill:#000000;fill-opacity:1;stroke:none;font-family:Palatino Linotype;-inkscape-font-specification:Palatino Linotype"
       id="text2989"
       transform="translate(-3.7898964,-8.6626204)" />
    <g
       style="font-size:200px;font-style:normal;font-variant:normal;font-weight:normal;font-stretch:normal;text-align:start;line-height:125%;letter-spacing:0px;word-spacing:0px;writing-mode:lr-tb;text-anchor:start;fill:#000000;fill-opacity:1;stroke:none;font-family:Palatino Linotype;-inkscape-font-specification:Palatino Linotype"
       id="text2985"
       transform="translate(12.724857,3.422883)">
      <path
         d="m 318.28125,282.84375 c -2.08341,1.3e-4 -5.44017,0.0574 -10.0625,0.1875 -12.50005,0.45587 -22.42452,0.68764 -29.78125,0.6875 -6.64065,1.4e-4 -15.92971,-0.26028 -27.84375,-0.78125 l -0.78125,0.6875 0,4.875 0.78125,0.6875 c 6.90103,0.26055 11.24217,0.63815 13,1.09375 1.75779,0.45586 2.94399,1.03399 3.5625,1.75 0.61847,0.71628 1.08201,2.13294 1.375,4.28125 0.29294,2.14856 0.46615,6.95324 0.53125,14.375 l 0.1875,19.03125 0,45.21875 -0.0937,20.59375 c -0.0651,6.96616 -0.32684,11.48179 -0.75,13.5 -0.4232,2.01824 -0.97268,3.31902 -1.65625,3.9375 -0.68362,0.6185 -2.01304,1.14063 -4.03125,1.53125 -2.01824,0.39063 -6.07033,0.70834 -12.125,0.96875 l -0.78125,0.59375 0,4.875 0.78125,0.78125 c 16.60154,-0.52083 25.91924,-0.78125 27.9375,-0.78125 2.60414,0 6.22131,0.0573 10.84375,0.1875 11.13276,0.39062 16.86192,0.59375 17.1875,0.59375 l 0.78125,-0.78125 0,-4.875 -0.78125,-0.59375 c -6.9011,-0.26041 -11.24224,-0.63672 -13,-1.125 -1.75786,-0.48828 -2.94405,-1.09635 -3.5625,-1.8125 -0.61853,-0.71614 -1.08077,-2.1328 -1.40625,-4.28125 -0.32557,-2.14842 -0.52865,-6.92446 -0.59375,-14.28125 l -0.0937,-19.03125 0,-45.21875 c -4e-5,-22.98166 0.49214,-35.19258 1.46875,-36.625 6.05464,-1.88789 12.4765,-2.81237 19.3125,-2.8125 9.76555,1.3e-4 17.52076,2.19935 23.25,6.59375 5.72908,4.39465 8.59366,10.87511 8.59375,19.46875 -9e-5,9.57041 -3.18238,17.06519 -9.5625,22.46875 -6.38029,5.40372 -15.2058,8.09382 -26.46875,8.09375 -1.88808,7e-5 -4.52089,-0.0859 -7.90625,-0.28125 l -0.96875,3.03125 c 11.71869,13.34641 23.17701,27.81255 34.375,43.4375 9.18651,12.84885 15.95732,21.96162 20.46875,27.53125 l 3.0625,5.125 -26.65625,37.46875 c -6.83596,9.50523 -11.43752,15.75653 -13.78125,18.71875 -2.34377,2.96225 -4.25262,4.81381 -5.75,5.5625 -1.49741,0.7487 -4.45053,1.15365 -8.8125,1.21875 L 297.75,489.5 l 0,4.6875 0.875,0.875 c 4.10155,-0.26042 7.40103,-0.375 9.875,-0.375 2.40883,0 5.73696,0.11458 9.96875,0.375 12.69528,-21.28904 23.71871,-38.39059 33.09375,-51.28125 l 7.125,-9.84375 29.6875,43.84375 c 3.32022,5.72918 6.9374,11.48698 10.84375,17.28125 6.70562,-0.26042 11.71082,-0.375 15.03125,-0.375 2.53894,0 6.90873,0.11458 13.09375,0.375 l 0.78125,-0.78125 0,-4.78125 -0.78125,-0.78125 c -4.16679,-0.0651 -6.82824,-0.35547 -8,-0.84375 -1.17199,-0.48828 -2.73579,-1.96223 -4.65625,-4.46875 -1.92069,-2.5065 -4.43761,-6.29685 -7.5625,-11.375 L 370.59375,419.3125 c -0.0745,-0.35621 -0.21081,-0.71075 -0.375,-1.09375 L 377.34375,408.75 395.5,384.125 c 6.5103,-8.78894 10.8215,-14.28633 12.9375,-16.5 2.11577,-2.21341 3.85275,-3.60273 5.1875,-4.15625 1.33451,-0.55325 4.05456,-0.92956 8.15625,-1.125 l 0.78125,-0.78125 0,-4.375 -0.78125,-0.90625 c -5.53398,0.19547 -8.57304,0.31264 -9.09375,0.3125 -1.172,1.4e-4 -4.49751,-0.11705 -10.03125,-0.3125 l -37.3125,54.75 c -1.46152,-1.87128 -3.53556,-4.88231 -6.75,-9.09375 -5.14334,-6.73825 -9.94541,-13.13278 -14.4375,-19.1875 l -13.875,-18.34375 c -4.75269,-6.24994 -8.05216,-10.64837 -9.875,-13.1875 9.83064,-1.88795 17.5572,-4.72519 23.15625,-8.46875 5.59885,-3.74341 9.82281,-8.22648 12.6875,-13.5 2.86447,-5.27335 4.31239,-10.65614 4.3125,-16.125 -1.1e-4,-8.203 -2.92198,-15.29154 -8.78125,-21.28125 -5.85947,-5.98945 -17.02874,-8.99987 -33.5,-9 z"
         id="path2997"
         inkscape:connector-curvature="0" />
    </g>
  </g>
</svg>
